<svg version="1.1" id="Layer_1" xmlns="http://www.w3.org/2000/svg" xmlns:xlink="http://www.w3.org/1999/xlink" x="0px" y="0px" viewBox="0 0 512 512" style="enable-background:new 0 0 512 512;" xml:space="preserve">
	<path fill="#002848" d="M512,256.5c0,140.8-115.2,256-256,256S0,397.3,0,256.5s115.2-256,256-256S512,115.7,512,256.5"/>
	<path fill="#FFFFFF" d="M270.5,254.5c-4,4-8.8,5.9-14.5,5.9c-5.6,0-10.5-2-14.4-5.9c-4-3.9-6-8.7-6-14.4v-95.6c0-5.7,2-10.5,6-14.4c3.9-3.9,8.8-5.9,14.4-5.9c5.7,0,10.5,2,14.5,5.9c3.9,4,5.9,8.8,5.9,14.4v95.6C276.4,245.8,274.4,250.6,270.5,254.5 M416.9,267c0-10.2-2.9-18.8-8.8-25.9c-5.8-7.1-13.8-10.7-24-10.7c-6.1,0-11.7,1.4-16.8,4.2c-5.1,2.8-9.4,6.6-12.9,11.5h-0.4l-87.3,99.9c-1.3,1.3-2.8,2.6-4.8,4c-1.9,1.4-3.8,2.1-5.9,2.1c-2,0-4-0.7-5.9-2.1c-1.9-1.4-3.5-2.7-4.8-4L157.6,246c-4.1-4.3-8.5-8-13.3-11.1c-4.9-3.1-10.3-4.6-16.4-4.6c-10.2,0-18.2,3.6-24,10.7c-5.9,7.1-8.8,15.8-8.8,25.9v111.3c0,5.1,1.8,9.4,5.3,13c3.6,3.6,7.9,5.3,13,5.3c5.1,0,9.4-1.8,13-5.3c3.5-3.5,5.3-7.9,5.3-13v-83.1c0-10.4,0.7-15.6,1.9-15.6c1.3,0,4.8,3.4,10.7,10.3l83.9,95.3c3.3,3.8,7.4,6.7,12.2,8.6c4.8,1.9,10.1,2.9,15.6,2.9c5.6,0,10.8-1,15.6-2.9c4.8-1.9,8.9-4.7,12.2-8.6l83.9-95.3c6.1-6.8,9.7-10.3,10.7-10.3c1.3,0,1.9,5.2,1.9,15.6v83.1c0,5.1,1.8,9.4,5.4,13c3.5,3.6,7.8,5.3,12.9,5.3c5.1,0,9.4-1.8,13-5.3c3.5-3.5,5.3-7.9,5.3-13V267z M275.1,83.6c0-10.6-8.6-19.1-19.1-19.1c-10.6,0-19.1,8.6-19.1,19.1c0,10.6,8.6,19.1,19.1,19.1C266.6,102.8,275.1,94.2,275.1,83.6"/>
</svg>
